<svg width="512" height="512" viewBox="0 0 512 512" fill="none" xmlns="http://www.w3.org/2000/svg">
<path d="M256 87L60 267H452L256 87Z" fill="#EACB46"/>
<path d="M256 125L154 231H358L256 125Z" fill="#D4362A"/>
<path d="M256 125L358 231H256V125Z" fill="#B6352A"/>
<path d="M166.752 376.567V380H112.851V376.567H117.304C122.499 376.567 126.272 375.052 128.622 372.021C130.106 370.042 130.849 365.28 130.849 357.734V276.465C130.849 270.094 130.447 265.889 129.643 263.848C129.024 262.301 127.756 260.972 125.839 259.858C123.118 258.374 120.272 257.632 117.304 257.632H112.851V254.199H166.752V257.632H162.206C157.073 257.632 153.331 259.147 150.98 262.178C149.434 264.157 148.661 268.919 148.661 276.465V357.734C148.661 364.105 149.063 368.311 149.867 370.352C150.486 371.898 151.785 373.228 153.764 374.341C156.423 375.825 159.237 376.567 162.206 376.567H166.752ZM258.505 251.323V294.834H255.072C253.959 286.484 251.949 279.836 249.042 274.888C246.197 269.94 242.115 266.012 236.796 263.105C231.477 260.199 225.972 258.745 220.282 258.745C213.85 258.745 208.531 260.724 204.325 264.683C200.119 268.579 198.017 273.032 198.017 278.042C198.017 281.877 199.346 285.371 202.006 288.525C205.84 293.164 214.963 299.349 229.374 307.08C241.125 313.389 249.135 318.244 253.402 321.646C257.732 324.985 261.041 328.944 263.329 333.521C265.679 338.097 266.854 342.891 266.854 347.9C266.854 357.425 263.144 365.651 255.722 372.578C248.362 379.443 238.868 382.876 227.24 382.876C223.591 382.876 220.159 382.598 216.942 382.041C215.025 381.732 211.036 380.618 204.975 378.701C198.975 376.722 195.172 375.732 193.563 375.732C192.017 375.732 190.78 376.196 189.853 377.124C188.987 378.052 188.337 379.969 187.904 382.876H184.472V339.736H187.904C189.512 348.766 191.677 355.539 194.398 360.054C197.12 364.507 201.264 368.218 206.83 371.187C212.458 374.155 218.612 375.64 225.292 375.64C233.023 375.64 239.115 373.599 243.568 369.517C248.083 365.435 250.341 360.61 250.341 355.044C250.341 351.951 249.475 348.828 247.743 345.674C246.073 342.52 243.445 339.582 239.857 336.86C237.445 335.005 230.858 331.077 220.097 325.078C209.335 319.017 201.666 314.193 197.089 310.605C192.574 307.018 189.141 303.06 186.791 298.73C184.441 294.401 183.266 289.639 183.266 284.443C183.266 275.413 186.729 267.651 193.656 261.157C200.583 254.601 209.397 251.323 220.097 251.323C226.776 251.323 233.858 252.962 241.342 256.24C244.805 257.786 247.248 258.56 248.671 258.56C250.279 258.56 251.578 258.096 252.567 257.168C253.619 256.178 254.454 254.23 255.072 251.323H258.505ZM364.916 315.801C373.637 317.656 380.162 320.625 384.491 324.707C390.491 330.397 393.49 337.355 393.49 345.581C393.49 351.828 391.511 357.827 387.553 363.579C383.594 369.269 378.152 373.444 371.225 376.104C364.359 378.701 353.845 380 339.682 380H280.307V376.567H285.038C290.295 376.567 294.068 374.897 296.356 371.558C297.779 369.393 298.49 364.785 298.49 357.734V276.465C298.49 268.672 297.593 263.755 295.8 261.714C293.388 258.993 289.8 257.632 285.038 257.632H280.307V254.199H334.672C344.815 254.199 352.948 254.941 359.071 256.426C368.349 258.652 375.43 262.611 380.316 268.301C385.202 273.929 387.646 280.423 387.646 287.783C387.646 294.092 385.728 299.751 381.894 304.761C378.059 309.709 372.4 313.389 364.916 315.801ZM316.303 310.791C318.591 311.224 321.189 311.564 324.096 311.812C327.064 311.997 330.312 312.09 333.837 312.09C342.867 312.09 349.639 311.131 354.154 309.214C358.731 307.235 362.226 304.235 364.638 300.215C367.05 296.195 368.256 291.803 368.256 287.041C368.256 279.681 365.256 273.403 359.257 268.208C353.257 263.013 344.506 260.415 333.002 260.415C326.817 260.415 321.251 261.095 316.303 262.456V310.791ZM316.303 370.908C323.477 372.578 330.559 373.413 337.548 373.413C348.743 373.413 357.278 370.908 363.153 365.898C369.029 360.827 371.967 354.58 371.967 347.158C371.967 342.272 370.637 337.572 367.978 333.057C365.318 328.542 360.989 324.985 354.989 322.388C348.99 319.79 341.568 318.491 332.724 318.491C328.889 318.491 325.611 318.553 322.89 318.677C320.168 318.8 317.973 319.017 316.303 319.326V370.908Z" fill="#111111"/>
</svg>
